# xmcd CD database file
#
# Track frame offsets:
#	150
#	22758
#	47090
#	69698
#
# Disc length: 1249 seconds
#
# Revision: 3
# Processed by: cddbd v1.5.2PL0 Copyright (c) Steve Scherf et al.
# Submitted via: CDex 1.70beta3
#
DISCID=2b04df04
DTITLE=彩音 - 十字架に捧ぐ七重奏
DYEAR=2010
DGENRE=Game
TTITLE0=十字架に捧ぐ七重奏
TTITLE1=想い出はゆびきりの記憶へ
TTITLE2=十字架に捧ぐ七重奏(Off Vocal)
TTITLE3=想い出はゆびきりの記憶へ(Off Vocal)
EXTD=YEAR: 2010
EXTT0=
EXTT1=
EXTT2=
EXTT3=
PLAYORDER=
